<svg xmlns="http://www.w3.org/2000/svg" viewBox="0 0 32 32"><defs><style>.cls-1{fill:#30acc2;}.cls-2{fill:#68c7d3;}.cls-3{fill:#d1e6e9;}.cls-4{fill:#a1d8df;}</style></defs><title>Drink</title><g id="Drink"><circle class="cls-1" cx="22" cy="8" r="7"/><circle class="cls-2" cx="22" cy="8" r="5"/><rect class="cls-1" x="21" y="7" width="7" height="2"/><rect class="cls-1" x="20.27" y="5.23" width="7" height="2" transform="translate(2.55 18.63) rotate(-45)"/><rect class="cls-1" x="18.5" y="4.5" width="7" height="2" transform="translate(16.5 27.5) rotate(-90)"/><rect class="cls-1" x="16.73" y="5.23" width="7" height="2" transform="translate(30.13 24.95) rotate(-135)"/><rect class="cls-1" x="16" y="7" width="7" height="2" transform="translate(39 16) rotate(-180)"/><rect class="cls-1" x="16.73" y="8.77" width="7" height="2" transform="translate(41.45 2.37) rotate(135)"/><rect class="cls-1" x="18.5" y="9.5" width="7" height="2" transform="translate(32.5 -11.5) rotate(90)"/><rect class="cls-1" x="20.27" y="8.77" width="7" height="2" transform="translate(13.87 -13.95) rotate(45)"/><path class="cls-3" d="M23,7c-.83,10-.39,4.76-2,24H7C5.33,10.88,5.72,15.55,5,7Z"/><polygon class="cls-1" points="10.01 19.12 8.11 3 3 3 3 1 9.89 1 11.99 18.88 10.01 19.12"/><path class="cls-4" d="M20.4,14.14,19.16,29H8.84L7.66,14.89c2.39.57,2.55-.89,4.53-.89,1.8,0,1.8,1,3.6,1s1.8-1,3.61-1A3,3,0,0,1,20.4,14.14Z"/><rect class="cls-2" x="11" y="23" width="4" height="4" transform="translate(21.49 -1.87) rotate(45)"/><rect class="cls-2" x="14" y="17" width="4" height="4" transform="translate(29.41 -1.91) rotate(72.77)"/></g></svg>